<svg width="2020" height="1390" viewBox="0 0 202 139" fill="none" xmlns="http://www.w3.org/2000/svg">
<path d="M78.1745 104.8V126.94H87.4265L86.9945 130H74.7185V104.8H78.1745ZM97.6508 110.668C99.7148 110.668 101.239 111.292 102.223 112.54C103.039 113.548 103.543 115.24 103.735 117.616C103.807 118.552 103.843 119.716 103.843 121.108L102.367 121.324H93.0428C93.0428 124.348 93.8468 126.256 95.4548 127.048C96.1268 127.384 97.0508 127.552 98.2268 127.552C99.4028 127.552 100.759 127.168 102.295 126.4L103.303 128.632C101.311 129.832 99.3068 130.432 97.2908 130.432C92.1548 130.432 89.5868 127.192 89.5868 120.712C89.5868 117.64 90.2588 115.204 91.6028 113.404C92.9708 111.58 94.9868 110.668 97.6508 110.668ZM100.387 118.768C100.387 116.848 100.195 115.504 99.8108 114.736C99.4268 113.944 98.5388 113.548 97.1468 113.548C95.7788 113.548 94.8068 114.016 94.2308 114.952C93.6548 115.864 93.2948 117.136 93.1508 118.768H100.387ZM116.495 116.824C116.495 114.64 115.499 113.548 113.507 113.548C112.235 113.548 110.519 113.884 108.359 114.556L107.207 112.288C109.271 111.208 111.503 110.668 113.903 110.668C116.807 110.668 118.583 111.532 119.231 113.26C119.567 114.148 119.735 115.324 119.735 116.788V124.456C119.735 126.184 120.227 127.552 121.211 128.56L119.303 130.432C118.871 130.168 118.427 129.784 117.971 129.28C117.539 128.752 117.239 128.236 117.071 127.732H116.963C115.643 129.532 113.819 130.432 111.491 130.432C108.059 130.432 106.343 128.644 106.343 125.068C106.343 121.9 108.575 119.992 113.039 119.344L116.495 118.84V116.824ZM109.799 125.464C109.799 126.856 110.651 127.552 112.355 127.552C114.083 127.552 115.463 126.952 116.495 125.752V121.36C113.471 121.768 111.611 122.248 110.915 122.8C110.171 123.4 109.799 124.288 109.799 125.464ZM133.179 110.668C133.803 110.668 134.271 110.728 134.583 110.848C134.919 110.944 135.195 111.028 135.411 111.1C135.627 111.148 135.759 111.184 135.807 111.208L135.231 114.448C134.511 114.208 133.647 114.088 132.639 114.088C131.655 114.088 130.755 114.52 129.939 115.384C129.147 116.224 128.751 117.244 128.751 118.444V130H125.511V116.284L125.223 111.28L127.851 110.92L128.247 114.556H128.391C128.799 113.38 129.411 112.444 130.227 111.748C131.067 111.028 132.051 110.668 133.179 110.668ZM146.795 110.668C148.571 110.668 149.987 111.184 151.043 112.216C152.099 113.224 152.627 114.832 152.627 117.04V130H149.387V117.256C149.387 114.784 148.151 113.548 145.679 113.548C144.959 113.548 144.251 113.728 143.555 114.088C142.859 114.424 142.307 114.82 141.899 115.276V130H138.659V116.284L138.371 111.28L140.999 110.92L141.467 113.044H141.611C142.043 112.492 142.691 111.964 143.555 111.46C144.443 110.932 145.523 110.668 146.795 110.668ZM161.446 130H158.206V111.28L161.446 110.92V130ZM159.682 109.876C158.218 109.876 157.486 109.06 157.486 107.428C157.486 106.828 157.678 106.312 158.062 105.88C158.47 105.448 159.094 105.232 159.934 105.232C161.398 105.232 162.13 106.048 162.13 107.68C162.13 108.28 161.926 108.796 161.518 109.228C161.134 109.66 160.522 109.876 159.682 109.876ZM175.342 110.668C177.118 110.668 178.534 111.184 179.59 112.216C180.646 113.224 181.174 114.832 181.174 117.04V130H177.934V117.256C177.934 114.784 176.698 113.548 174.226 113.548C173.506 113.548 172.798 113.728 172.102 114.088C171.406 114.424 170.854 114.82 170.446 115.276V130H167.206V116.284L166.918 111.28L169.546 110.92L170.014 113.044H170.158C170.59 112.492 171.238 111.964 172.102 111.46C172.99 110.932 174.07 110.668 175.342 110.668ZM192.657 110.668C193.041 110.668 193.365 110.68 193.629 110.704C193.917 110.728 194.625 110.764 195.753 110.812C199.089 110.956 200.913 111.028 201.225 111.028L200.829 113.116L198.345 113.368C198.945 114.376 199.245 115.576 199.245 116.968C199.245 119.032 198.621 120.664 197.373 121.864C196.125 123.064 194.349 123.664 192.045 123.664C191.685 123.664 191.217 123.64 190.641 123.592C190.161 123.976 189.849 124.252 189.705 124.42C189.561 124.588 189.489 124.78 189.489 124.996C189.489 125.692 190.245 126.112 191.757 126.256L194.457 126.508C196.377 126.628 197.877 127.024 198.957 127.696C200.061 128.344 200.613 129.424 200.613 130.936C200.613 132.472 200.169 133.696 199.281 134.608C197.625 136.336 195.165 137.2 191.901 137.2C186.981 137.2 184.521 135.712 184.521 132.736C184.521 131.56 185.265 130.336 186.753 129.064C186.921 128.92 187.041 128.824 187.113 128.776C187.209 128.704 187.329 128.62 187.473 128.524C187.617 128.404 187.701 128.344 187.725 128.344C186.789 127.792 186.321 127 186.321 125.968C186.321 125.344 186.489 124.828 186.825 124.42C187.161 124.012 187.725 123.532 188.517 122.98C186.477 121.996 185.457 120.16 185.457 117.472C185.457 115.36 186.081 113.704 187.329 112.504C188.577 111.28 190.353 110.668 192.657 110.668ZM187.689 131.98C187.689 132.892 188.121 133.564 188.985 133.996C189.873 134.428 191.013 134.644 192.405 134.644C193.821 134.644 195.021 134.428 196.005 133.996C197.013 133.564 197.517 132.88 197.517 131.944C197.517 131.2 197.289 130.684 196.833 130.396C196.593 130.228 196.365 130.096 196.149 130C195.957 129.88 195.621 129.784 195.141 129.712C194.277 129.592 193.365 129.496 192.405 129.424C191.469 129.352 190.605 129.232 189.813 129.064C188.853 129.808 188.253 130.372 188.013 130.756C187.797 131.164 187.689 131.572 187.689 131.98ZM192.153 113.224C190.929 113.224 190.053 113.548 189.525 114.196C189.021 114.844 188.769 115.84 188.769 117.184C188.769 119.848 190.029 121.18 192.549 121.18C193.797 121.18 194.673 120.844 195.177 120.172C195.681 119.5 195.933 118.48 195.933 117.112C195.933 114.52 194.673 113.224 192.153 113.224Z" fill="white"/>
<path d="M3.64039 104.8H17.2844L16.8524 107.896H7.09639V115.636H15.7004L15.2684 118.66H7.09639V126.904H17.4644L17.0324 130H3.64039V104.8ZM29.5612 116.824C29.5612 114.64 28.5652 113.548 26.5732 113.548C25.3012 113.548 23.5852 113.884 21.4252 114.556L20.2732 112.288C22.3372 111.208 24.5692 110.668 26.9692 110.668C29.8732 110.668 31.6492 111.532 32.2972 113.26C32.6332 114.148 32.8012 115.324 32.8012 116.788V124.456C32.8012 126.184 33.2932 127.552 34.2772 128.56L32.3692 130.432C31.9372 130.168 31.4932 129.784 31.0372 129.28C30.6052 128.752 30.3052 128.236 30.1372 127.732H30.0292C28.7092 129.532 26.8852 130.432 24.5572 130.432C21.1252 130.432 19.4092 128.644 19.4092 125.068C19.4092 121.9 21.6412 119.992 26.1052 119.344L29.5612 118.84V116.824ZM22.8652 125.464C22.8652 126.856 23.7172 127.552 25.4212 127.552C27.1492 127.552 28.5292 126.952 29.5612 125.752V121.36C26.5372 121.768 24.6772 122.248 23.9812 122.8C23.2372 123.4 22.8652 124.288 22.8652 125.464ZM37.1373 116.104C37.1373 114.448 37.7133 113.128 38.8653 112.144C40.0413 111.16 41.5533 110.668 43.4013 110.668C45.2493 110.668 46.6893 111.124 47.7213 112.036C48.7533 112.924 49.3413 114.124 49.4853 115.636L46.1373 116.32C46.0893 115.432 45.8013 114.736 45.2733 114.232C44.7453 113.728 44.0613 113.476 43.2213 113.476C42.3813 113.476 41.7333 113.68 41.2773 114.088C40.8213 114.472 40.5933 114.952 40.5933 115.528C40.5933 116.104 40.6893 116.572 40.8813 116.932C41.0733 117.292 41.3853 117.616 41.8173 117.904C42.3933 118.312 43.1973 118.732 44.2293 119.164C45.2613 119.572 46.0173 119.908 46.4973 120.172C46.9773 120.412 47.5293 120.76 48.1533 121.216C49.3293 122.056 49.9173 123.268 49.9173 124.852C49.9173 126.412 49.2933 127.732 48.0453 128.812C46.7973 129.892 45.1533 130.432 43.1133 130.432C41.0733 130.432 39.0453 129.784 37.0293 128.488L38.2893 126.112C40.5453 127.072 42.2853 127.552 43.5093 127.552C45.4773 127.552 46.4613 126.784 46.4613 125.248C46.4613 124.552 46.1493 123.976 45.5253 123.52C44.9253 123.04 44.1093 122.584 43.0773 122.152C42.0453 121.696 41.2773 121.348 40.7733 121.108C40.2933 120.844 39.7293 120.472 39.0813 119.992C37.7853 119.032 37.1373 117.736 37.1373 116.104ZM63.1189 110.956L66.2509 111.316L61.8229 126.256C60.8389 129.616 59.9269 132.052 59.0869 133.564C58.5589 134.5 57.7069 135.328 56.5309 136.048C55.3549 136.792 54.3349 137.176 53.4709 137.2L52.1389 134.572C53.2909 134.476 54.3829 134.044 55.4149 133.276C56.4709 132.508 57.1069 131.512 57.3229 130.288C55.5949 124.888 53.5909 118.552 51.3109 111.28L54.6949 110.92L58.7989 126.364H59.0149L63.1189 110.956Z" fill="#FB7445"/>
<path d="M146.995 89.6512C152.4 87.0591 156.669 82.9573 159.13 77.9933C161.591 73.0293 162.102 67.4857 160.584 62.2376C159.066 56.9895 155.604 52.3356 150.745 49.0105C145.886 45.6855 139.906 43.8786 133.75 43.875H126.768C125.09 38.1675 121.964 32.8689 117.624 28.3773C113.283 23.8858 107.842 20.3183 101.709 17.9429C95.5755 15.5676 88.91 14.4464 82.2132 14.6634C75.5165 14.8805 68.9628 16.4302 63.0449 19.1961C57.127 21.962 51.9989 25.8721 48.0461 30.6324C44.0933 35.3928 41.4187 40.8795 40.2233 46.68C39.0279 52.4806 39.3428 58.4441 41.1445 64.1221C42.9461 69.8002 46.1876 75.0451 50.6251 79.4625" stroke="white" stroke-opacity="0.9" stroke-width="4" stroke-linecap="round" stroke-linejoin="round"/>
<path d="M115.1 50.75V46.25H80.6V50.75H115.1ZM115.1 59.75V55.25H80.6V59.75H115.1ZM89.8 68.75V64.25H80.6V68.75H89.8ZM94.4 64.25H115.1C116.365 64.25 117.4 65.2625 117.4 66.5V84.5C117.4 85.7375 116.365 86.75 115.1 86.75H94.4C93.135 86.75 92.1 85.7375 92.1 84.5V66.5C92.1 65.2625 93.135 64.25 94.4 64.25ZM101.3 80L108.959 75.5L101.3 71V80ZM89.8 77.75V73.25H80.6V77.75H89.8ZM89.8 86.75V82.25H80.6V86.75H89.8Z" fill="white"/>
<path d="M145.805 69.1111L135.402 58L125 69.1111" stroke="#FB7445" stroke-width="2" stroke-linecap="round" stroke-linejoin="round"/>
<path d="M52 54L62.4023 65.1111L72.8046 54" stroke="#FB7445" stroke-width="2" stroke-linecap="round" stroke-linejoin="round"/>
<path d="M135.402 58V83" stroke="#FB7445" stroke-width="2" stroke-linecap="round" stroke-linejoin="round"/>
<path d="M62.4022 63V38" stroke="#FB7445" stroke-width="2" stroke-linecap="round" stroke-linejoin="round"/>
<rect x="92" y="63" width="26" height="24" rx="3" fill="#FB7445"/>
<path d="M99 69.871C99 68.4537 100.516 67.5528 101.761 68.2295L112.025 73.8141C113.325 74.5223 113.325 76.3888 112.025 77.0962L101.761 82.6808C100.516 83.3583 99 82.4566 99 81.0401V69.871Z" fill="white"/>
</svg>
