<svg width="2150" height="1450" viewBox="0 0 215 145" fill="none" xmlns="http://www.w3.org/2000/svg">
<path opacity="0.1" d="M124.55 23.7384C110.807 23.2587 97.7188 18.8053 85.2182 13.932C72.7177 9.05859 60.3403 3.65865 46.9267 1.08766C38.2993 -0.573044 28.4339 -0.807546 21.4819 3.83559C14.7931 8.31244 12.6315 16.019 11.4678 23.1756C10.5951 28.5627 10.0791 34.2292 12.4765 39.271C14.1391 42.7714 17.0928 45.7134 19.1355 49.0667C26.2404 60.7321 21.2186 75.1178 13.5169 86.5082C9.90713 91.8505 5.71552 96.9541 2.92747 102.638C0.139432 108.321 -1.14948 114.842 1.2882 120.645C3.70677 126.401 9.46759 130.716 15.7062 133.754C28.3808 139.923 43.3105 141.691 57.8814 142.691C90.1191 144.906 122.531 143.946 154.853 142.987C166.817 142.631 178.831 142.271 190.599 140.414C197.135 139.382 203.883 137.745 208.627 133.805C214.649 128.789 216.142 120.293 212.107 114.005C205.338 103.454 186.626 100.832 181.889 89.5098C179.283 83.2784 181.959 76.335 185.743 70.5556C193.863 58.1547 207.472 47.2781 208.189 33.1036C208.682 23.3696 202.14 13.6207 192.024 9.01382C181.419 4.18521 166.717 4.79278 158.899 12.785C150.838 20.9947 136.683 24.1605 124.55 23.7384Z" fill="#F79E44"/>
</svg>
