<svg width="240" height="180" viewBox="0 0 24 18" fill="none" xmlns="http://www.w3.org/2000/svg">
<path d="M23.5312 5.95312C23.625 5.85938 23.7188 5.84375 23.8125 5.90625C23.9375 5.96875 24 6.0625 24 6.1875V15.75C24 16.375 23.7812 16.9062 23.3438 17.3438C22.9062 17.7812 22.375 18 21.75 18H2.25C1.625 18 1.09375 17.7812 0.65625 17.3438C0.21875 16.9062 0 16.375 0 15.75V6.1875C0 6.0625 0.046875 5.98438 0.140625 5.95312C0.265625 5.89062 0.375 5.89062 0.46875 5.95312C1.5 6.73438 3.90625 8.5 7.6875 11.25L8.15625 11.6719C8.90625 12.2344 9.5 12.6406 9.9375 12.8906C10.6875 13.2969 11.375 13.5 12 13.5C12.625 13.5 13.3125 13.2812 14.0625 12.8438C14.5312 12.5938 15.125 12.1875 15.8438 11.625L16.3125 11.25C20 8.59375 22.4062 6.82812 23.5312 5.95312ZM12 12C12.4062 12 12.9062 11.8125 13.5 11.4375C13.8438 11.25 14.3281 10.9062 14.9531 10.4062L15.4219 10.0781C19.3594 7.23438 22 5.28125 23.3438 4.21875L23.5781 4.03125C23.8594 3.8125 24 3.51562 24 3.14062V2.25C24 1.625 23.7812 1.09375 23.3438 0.65625C22.9062 0.21875 22.375 0 21.75 0H2.25C1.625 0 1.09375 0.21875 0.65625 0.65625C0.21875 1.09375 0 1.625 0 2.25V3.14062C0 3.51562 0.140625 3.8125 0.421875 4.03125L0.75 4.26562C2.125 5.32812 4.73438 7.26562 8.57812 10.0781L9.04688 10.4062C9.67188 10.9062 10.1562 11.25 10.5 11.4375C11.0938 11.8125 11.5938 12 12 12Z" fill="white"/>
</svg>
