<svg width="240" height="240" viewBox="0 0 24 24" fill="none" xmlns="http://www.w3.org/2000/svg">
<path d="M23.4375 12.2812C23.4375 14.4688 22.9688 16.4219 22.0312 18.1406C21.0938 19.8594 19.7656 21.2031 18.0469 22.1719C16.3594 23.1406 14.4062 23.625 12.1875 23.625C10.0938 23.625 8.15625 23.0938 6.375 22.0312C4.59375 21 3.17188 19.5938 2.10938 17.8125C1.07812 16.0312 0.5625 14.0938 0.5625 12C0.5625 9.90625 1.07812 7.96875 2.10938 6.1875C3.17188 4.40625 4.59375 3 6.375 1.96875C8.15625 0.90625 10.0938 0.375 12.1875 0.375C15.2188 0.375 17.8125 1.39063 19.9688 3.42188L16.8281 6.46875C15.8281 5.5 14.625 4.92188 13.2188 4.73438C11.9062 4.54688 10.6094 4.73438 9.32812 5.29688C8.04688 5.85938 7.01562 6.70312 6.23438 7.82812C5.39062 9.04688 4.96875 10.4375 4.96875 12C4.96875 13.3438 5.29688 14.5781 5.95312 15.7031C6.60938 16.7969 7.48438 17.6875 8.57812 18.375C9.67188 19.0312 10.875 19.3594 12.1875 19.3594C13.5938 19.3594 14.8281 19.0469 15.8906 18.4219C16.7344 17.9219 17.4375 17.25 18 16.4062C18.4062 15.7188 18.6719 15.0312 18.7969 14.3438H12.1875V10.3125H23.25C23.375 11 23.4375 11.6562 23.4375 12.2812Z" fill="white"/>
</svg>
