<svg width="290" height="290" viewBox="0 0 29 29" fill="none" xmlns="http://www.w3.org/2000/svg">
<path d="M20.5429 24.1667H7.2512C6.61026 24.1667 5.99557 23.9121 5.54236 23.4588C5.08915 23.0056 4.83453 22.3909 4.83453 21.75V8.45834C4.83453 7.8174 5.08915 7.20271 5.54236 6.74949C5.99557 6.29628 6.61026 6.04167 7.2512 6.04167H12.0845V8.45834H7.2512V21.75H20.5429V16.9167H22.9595V21.75C22.9595 22.3909 22.7049 23.0056 22.2517 23.4588C21.7985 23.9121 21.1838 24.1667 20.5429 24.1667ZM14.1387 16.5626L12.435 14.854L20.039 7.25H15.7095V4.83334H24.1679V13.2917H21.7512V8.95979L14.1387 16.5626Z" fill="white"/>
</svg>
