<svg width="216" height="151" viewBox="0 0 216 151" fill="none" xmlns="http://www.w3.org/2000/svg">
<path opacity="0.1" d="M126.182 23.7486C112.439 23.269 99.3503 18.8156 86.8497 13.9422C74.3492 9.06883 61.9718 3.66889 48.5582 1.09789C39.9308 -0.562806 30.0654 -0.797308 23.1134 3.84583C16.4246 8.32268 14.263 16.0293 13.0993 23.1858C12.2266 28.573 11.7106 34.2394 14.108 39.2812C15.7706 42.7817 18.7243 45.7236 20.767 49.077C27.8719 60.7424 22.8501 75.128 15.1484 86.5184C11.5386 91.8608 7.34702 96.9644 4.55897 102.648C1.77093 108.331 0.48202 114.853 2.9197 120.655C5.33827 126.411 11.0991 130.726 17.3377 133.764C30.0123 139.934 44.942 141.701 59.5129 142.701C91.7506 144.916 124.162 143.956 156.485 142.997C168.448 142.641 180.463 142.281 192.23 140.424C198.766 139.392 205.515 137.755 210.258 133.815C216.28 128.799 217.773 120.304 213.739 114.015C206.969 103.464 188.258 100.842 183.52 89.52C180.915 83.2887 183.59 76.3453 187.374 70.5659C195.494 58.165 209.103 47.2884 209.821 33.1138C210.313 23.3798 203.771 13.631 193.655 9.02406C183.051 4.19545 168.348 4.80302 160.53 12.7953C152.47 21.005 138.315 24.1707 126.182 23.7486Z" fill="#F79E44"/>
<g opacity="0.1">
<path opacity="0.1" d="M18.3357 70.0009C18.3357 70.0009 2.46526 63.2985 0.377944 75.3838C0.377944 75.3838 -0.707121 77.2684 0.802626 78.8246C0.802626 78.8246 1.12751 77.9889 2.66061 78.8523C3.20819 79.1564 3.78985 79.3939 4.39332 79.5601C5.20831 79.7858 6.07429 79.7394 6.86073 79.4279C6.86073 79.4279 12.0822 79.1444 16.4734 72.2863C16.4734 72.2863 18.3569 71.118 18.4503 70.6789L15.3034 70.892C15.3034 70.892 15.5455 73.2051 14.2417 74.5929C14.2417 74.5929 15.3968 71.0029 14.8426 70.9027C14.7301 70.8814 13.18 71.086 13.18 71.086C13.18 71.086 13.5813 75.1088 11.4813 77.1895C11.4813 77.1895 13.4306 73.0985 12.5833 71.1585L10.2603 71.6083C10.2603 71.6083 10.8973 75.84 8.5998 78.3002C8.5998 78.3002 10.4896 73.9512 9.75919 71.7426L7.53597 72.493C7.53597 72.493 8.07107 76.6309 6.14938 78.6754C6.14938 78.6754 7.82688 73.4289 7.03697 72.7062C7.03697 72.7062 5.03671 73.5206 4.60991 73.9853C4.60991 73.9853 4.9263 76.9699 3.70533 78.0465C3.70533 78.0465 4.4549 74.4224 4.0833 74.2731C4.0833 74.2731 1.76029 76.0298 1.05107 77.5455C1.05107 77.5455 1.93441 75.2303 3.79239 73.9214C3.79239 73.9214 2.23168 73.657 1.03196 74.3115C1.03196 74.3115 1.83461 72.7745 4.3551 73.5035C4.3551 73.5035 6.22158 72.2053 6.5953 72.2244C6.5953 72.2244 4.21071 71.1585 2.48862 71.2907C2.48862 71.2907 4.33599 70.2248 7.17712 72.0049L9.39608 71.2012C9.39608 71.2012 6.31713 69.6172 4.77553 69.6236C4.77553 69.6236 6.82675 68.8263 9.97153 71.0434L12.2436 70.5787C12.2436 70.5787 9.69549 69.0118 7.97764 68.6472C7.97764 68.6472 10.0374 68.3189 12.8997 70.4699L14.4519 70.3399C14.4519 70.3399 12.5727 69.2271 12.0036 68.9563C11.4346 68.6856 11.46 68.5108 11.46 68.5108C12.8138 68.7471 14.0754 69.3568 15.1038 70.2717C15.1038 70.2717 18.3229 70.1992 18.3357 70.0009Z" fill="#FC5185"/>
</g>
<g opacity="0.1">
<path opacity="0.1" d="M17.7539 57.9859C17.7539 57.9859 12.1247 44.9242 4.03025 50.9146C4.03025 50.9146 2.31878 51.4135 2.33152 53.1957C2.33152 53.1957 2.99827 52.8844 3.42083 54.2765C3.57578 54.7703 3.78967 55.2435 4.05786 55.6857C4.41231 56.2867 4.95301 56.7546 5.59733 57.0181C5.59733 57.0181 8.86102 59.8364 15.365 58.2737C15.365 58.2737 17.1487 58.6553 17.4524 58.4507L15.4648 56.7729C15.4648 56.7729 14.2948 58.2865 12.7278 58.359C12.7278 58.359 15.4521 56.888 15.1803 56.5107C15.1251 56.4339 14.0867 55.6707 14.0867 55.6707C14.0867 55.6707 12.044 58.2886 9.62757 58.3291C9.62757 58.3291 13.1078 57.0117 13.7045 55.3766L12.0695 54.3106C12.0695 54.3106 10.0438 57.1865 7.28545 57.3357C7.28545 57.3357 10.8761 55.8328 11.6958 54.1017L9.94821 53.2767C9.94821 53.2767 7.91822 56.0481 5.62281 56.1525C5.62281 56.1525 9.59785 53.9951 9.53627 53.1147C9.53627 53.1147 7.88637 52.4538 7.36189 52.4922C7.36189 52.4922 5.86064 54.4428 4.52076 54.3874C4.52076 54.3874 7.02427 52.6627 6.88837 52.3621C6.88837 52.3621 4.51014 52.0765 3.22973 52.5753C3.22973 52.5753 5.0686 51.7055 6.91385 51.9912C6.91385 51.9912 6.13668 50.9402 5.05586 50.6481C5.05586 50.6481 6.40635 50.1941 7.4893 52.0658C7.4893 52.0658 9.33242 52.3643 9.54901 52.586C9.54901 52.586 8.73999 50.5842 7.63793 49.6824C7.63793 49.6824 9.33666 50.1088 10.0162 52.7885L11.7913 53.5794C11.7913 53.5794 10.8613 50.8763 9.93971 50.0001C9.93971 50.0001 11.6108 50.6993 12.2224 53.8161L13.8362 54.8372C13.8362 54.8372 13.2119 52.4495 12.3986 51.2493C12.3986 51.2493 13.8086 52.2342 14.2863 55.1484L15.2843 55.9585C15.2843 55.9585 14.7981 54.2232 14.6133 53.7372C14.4286 53.2511 14.5433 53.1616 14.5433 53.1616C15.214 54.0757 15.6177 55.1594 15.709 56.2911C15.709 56.2911 17.6286 58.0946 17.7539 57.9859Z" fill="#FC5185"/>
</g>
<path d="M198.172 142.225C197.96 141.454 197.747 140.671 197.323 140C196.929 139.43 196.46 138.916 195.93 138.471C194.39 137.066 192.498 135.64 190.458 135.996C189.825 136.135 189.213 136.359 188.64 136.661C188.343 136.8 188.043 136.938 187.737 137.056C186.876 137.417 185.924 137.5 185.013 137.294C184.546 137.169 184.111 136.943 183.65 136.802C183.43 136.736 183.206 136.688 182.979 136.657C183.424 136.455 183.856 136.226 184.274 135.973C186.565 134.551 188.394 131.993 188.137 129.285C188.052 128.368 187.737 127.492 187.427 126.629C187.156 125.874 186.883 125.119 186.61 124.363C186.257 123.38 185.894 122.38 185.249 121.564C184.531 120.655 183.512 120.039 182.459 119.579C180.195 118.592 177.721 118.244 175.279 117.908L175.109 117.884V91.3982C175.111 91.1733 175.068 90.9504 174.983 90.7422C174.898 90.5341 174.774 90.3448 174.616 90.1853C174.458 90.0258 174.27 89.8992 174.063 89.8129C173.856 89.7265 173.635 89.682 173.411 89.682H170.198C170.056 88.8122 169.915 87.9432 169.773 87.0748C169.368 84.5997 168.949 82.0756 167.813 79.8457C167.07 78.3854 165.885 76.9955 164.291 76.7077C163.977 76.6783 163.668 76.6066 163.373 76.4945C162.906 76.2643 162.651 75.7526 162.29 75.3732C161.365 74.3989 159.859 74.384 158.617 73.8809C157.521 73.4438 156.625 72.6188 155.627 71.9857C154.629 71.3525 153.387 70.9006 152.281 71.3141C152.281 71.3951 152.266 71.474 152.257 71.555L151.548 71.2353C150.784 70.8814 150.002 70.5147 149.389 69.9306C148.599 69.1823 148.178 68.1953 147.851 67.1421C147.817 67.0313 147.785 66.929 147.754 66.8117C149.111 65.4196 150.029 63.6572 150.395 61.7443C150.452 61.9298 150.512 62.1174 150.569 62.305C150.621 62.4957 150.693 62.6807 150.782 62.8572C150.811 62.9155 150.844 62.9717 150.881 63.0256C150.951 63.1302 151.039 63.2218 151.14 63.2963C151.241 63.3698 151.359 63.4161 151.482 63.4306C151.541 63.439 151.601 63.439 151.661 63.4306C151.821 63.3966 151.97 63.3228 152.095 63.2159C152.22 63.109 152.316 62.9725 152.374 62.8188C152.408 62.735 152.433 62.6478 152.448 62.5587C152.457 62.505 152.462 62.4509 152.463 62.3967C152.463 62.3796 152.463 62.3626 152.463 62.3455C152.463 62.3285 152.463 62.2709 152.463 62.2347C152.463 62.1984 152.463 62.1942 152.463 62.175C152.463 62.1558 152.463 62.1025 152.463 62.0684V62.0129C152.463 61.9703 152.451 61.9277 152.442 61.8872C152.434 61.8467 152.442 61.8637 152.442 61.8531C152.431 61.7976 152.419 61.7443 152.408 61.6889C152.407 61.6769 152.407 61.6647 152.408 61.6527L152.376 61.5184L152.357 61.4374V61.416C152.336 61.3329 152.317 61.2476 152.298 61.1623C152.143 60.4218 152.104 59.6617 152.181 58.909C152.309 57.8049 152.512 56.7108 152.788 55.6345L152.833 55.4405L152.884 55.2145C152.918 55.061 152.95 54.9075 152.981 54.7541C153.009 54.624 153.034 54.4918 153.058 54.3597C153.081 54.2275 153.098 54.1273 153.115 54.01C153.115 53.9951 153.115 53.9823 153.115 53.9674C153.245 53.1728 153.28 52.3656 153.219 51.5627C153.119 50.4477 152.775 49.3925 152.019 48.5504C151.487 47.9556 150.786 47.5165 150.291 46.8918C149.826 46.3056 149.565 45.585 149.085 45.0116C147.758 43.4212 144.354 42.1954 142.265 41.9822C139.871 41.7392 136.005 42.3532 134.077 43.773C133.363 44.2974 132.875 45.0521 132.378 45.7705C131.465 47.105 130.426 48.4353 128.963 49.1814C128.409 49.4628 127.776 49.676 127.409 50.1663C127.187 50.4988 127.042 50.8768 126.984 51.2728C126.702 52.6621 126.556 54.0759 126.547 55.4938C126.515 56.114 126.594 56.7349 126.781 57.3272C126.81 57.4082 126.846 57.4913 126.885 57.5702C126.919 57.6406 126.957 57.7109 126.997 57.7834L127.023 57.8282C127.279 58.1975 127.507 58.5859 127.704 58.99C127.751 59.1039 127.785 59.2225 127.806 59.3439C127.843 59.6569 127.822 59.9739 127.747 60.2798C127.747 60.3267 127.73 60.3714 127.719 60.4162L127.7 60.5143C127.7 60.5441 127.7 60.5761 127.683 60.6059C127.666 60.6983 127.651 60.79 127.638 60.8809C127.638 60.9449 127.626 61.011 127.624 61.0771C127.609 61.3411 127.659 61.6048 127.77 61.8445C127.798 61.9017 127.831 61.9559 127.87 62.0065C127.946 62.1088 128.044 62.1926 128.157 62.2517C128.41 62.3472 128.674 62.4102 128.942 62.4393C129.736 62.6184 130.233 63.2281 130.556 63.9764C130.628 64.1443 130.691 64.3158 130.745 64.4901C130.877 64.9275 130.977 65.3744 131.042 65.8268C131.403 65.8076 131.613 65.4878 131.741 65.1382C131.781 65.0229 131.814 64.9055 131.841 64.7865C131.89 64.5626 131.938 64.3388 131.989 64.1149C132.827 65.9004 134.178 67.394 135.867 68.4042C135.926 68.579 135.983 68.7559 136.037 68.935C136.315 69.9007 136.448 70.9134 135.966 71.7576C135.622 72.3566 135.043 72.7276 134.397 72.9834C134.304 72.8581 134.185 72.7554 134.047 72.6828C133.486 72.4014 132.815 72.7446 132.348 73.1646C131.499 73.9363 130.807 75.0427 129.688 75.2964C129.284 75.3902 128.838 75.371 128.501 75.6183C128.278 75.8282 128.092 76.0739 127.951 76.3453C127.708 76.6949 127.382 76.9776 127.002 77.1676C126.622 77.3576 126.2 77.4487 125.776 77.4325C125.388 77.4133 124.927 77.3238 124.661 77.6094C124.464 77.8226 124.449 78.1616 124.237 78.3641C123.95 78.6455 123.485 78.507 123.086 78.4899C122.797 78.4907 122.512 78.5504 122.247 78.6655C121.983 78.7806 121.744 78.9486 121.546 79.1593C121.521 78.2992 121.193 77.4758 120.621 76.8356C120.047 76.2429 119.251 75.9381 118.571 75.4734C116.873 74.3136 116.023 72.2756 115.138 70.4081C114.252 68.5406 113.085 66.5708 111.152 65.8908C110.708 65.733 110.091 65.7202 109.891 66.153C109.823 66.3336 109.812 66.5308 109.859 66.7179C110.046 67.7113 110.751 68.5086 111.36 69.3081C112.386 70.6554 113.246 72.3033 112.998 73.9875C112.707 75.9807 110.938 77.5284 110.725 79.5302C110.632 80.4128 110.855 81.2997 110.853 82.1865C110.853 82.7408 110.766 83.3014 110.885 83.8408C111.011 84.2506 111.161 84.6527 111.333 85.0453C111.524 85.6895 111.623 86.3578 111.626 87.03C111.776 89.8554 111.925 92.6815 112.074 95.5083C112.186 97.6167 111.728 99.6974 111.265 101.772C110.691 103.001 110.245 104.287 109.936 105.609C109.413 107.918 109.398 110.378 110.148 112.625C110.549 113.846 111.165 114.991 111.494 116.234C111.494 116.262 111.507 116.287 111.513 116.313C111.545 116.577 111.581 116.842 111.63 117.104C111.69 117.407 111.769 117.706 111.866 117.999C111.962 118.504 112.119 118.996 112.333 119.464C112.631 120.058 113.068 120.57 113.607 120.956C113.301 121.557 112.806 122.041 112.477 122.63C111.904 123.649 111.881 124.9 112.089 126.055C112.49 128.285 113.69 130.279 115.274 131.899C115.203 131.895 115.132 131.895 115.061 131.899C114.543 131.956 114.046 132.135 113.609 132.421C110.256 134.389 108.339 138.603 109.039 142.462C109.177 143.217 109.417 143.98 109.919 144.553C110.336 145.01 110.872 145.34 111.467 145.506C111.838 145.618 112.22 145.69 112.607 145.719C115.221 145.933 117.752 144.715 120.372 144.613C121.241 144.599 122.11 144.64 122.973 144.735C124.235 144.84 125.499 144.906 126.766 144.935C128.823 144.984 129.983 144.434 131.297 142.888C131.62 142.505 131.889 142.079 132.098 141.622C133.215 141.558 134.448 141.46 135.342 141.385L135.355 141.511C135.404 141.938 135.478 142.428 135.818 142.699C136.01 142.829 136.227 142.918 136.455 142.959C138.602 143.49 140.774 144.025 142.982 144.025C144.019 144.003 145.054 143.923 146.082 143.784L149.968 143.334C151.099 143.48 152.215 143.724 153.304 144.063C154.425 144.447 155.474 145.016 156.57 145.464C159.118 146.502 161.862 146.873 164.577 147.235C165.04 147.297 165.571 147.34 165.915 147.022C166.357 146.596 166.208 145.881 166.085 145.285C166.034 145.041 165.996 144.794 165.964 144.547C167.797 145.031 169.59 145.656 171.328 146.417L171.633 146.551C171.721 147.016 172.149 147.389 172.559 147.89C172.694 148.1 172.851 148.296 173.029 148.472C173.231 148.605 173.461 148.689 173.702 148.717C176.571 149.253 179.501 149.386 182.408 149.111C183.002 149.03 183.603 149.009 184.202 149.049C184.641 149.109 185.075 149.208 185.497 149.344L187.956 150.049C189.767 150.571 191.625 151.098 193.505 150.981C193.886 150.956 194.265 150.901 194.639 150.817C196.125 150.471 197.511 149.636 198.225 148.293C199.183 146.466 198.718 144.221 198.172 142.225ZM126.048 108.881C125.972 109.806 125.732 110.709 125.339 111.548C125.075 112.083 124.736 112.576 124.489 113.113C124.256 113.599 124.082 114.518 123.978 115.526C123.85 115.505 123.721 115.486 123.593 115.471C123.782 114.806 123.925 114.124 124.114 113.456C124.562 111.87 125.298 110.371 126.048 108.881Z" fill="url(#paint0_linear)"/>
<path d="M129.32 141.669C128.872 140.646 128.447 139.469 128.895 138.446C129.188 137.843 129.69 137.369 130.308 137.113C130.918 136.863 131.562 136.704 132.219 136.64C134.279 136.369 136.364 136.34 138.432 136.555C138.583 137.753 138.264 138.968 137.99 140.126C137.742 141.191 137.599 141.349 136.504 141.405C135.794 141.443 129.488 142.046 129.32 141.669Z" fill="#FBBEBE"/>
<path d="M148.229 134.766C164.999 134.766 178.594 130.948 178.594 126.239C178.594 121.529 164.999 117.711 148.229 117.711C131.459 117.711 117.864 121.529 117.864 126.239C117.864 130.948 131.459 134.766 148.229 134.766Z" fill="#464353"/>
<path opacity="0.1" d="M148.229 134.766C164.999 134.766 178.594 130.948 178.594 126.239C178.594 121.529 164.999 117.711 148.229 117.711C131.459 117.711 117.864 121.529 117.864 126.239C117.864 130.948 131.459 134.766 148.229 134.766Z" fill="black"/>
<path d="M153.674 81.2229C152.633 83.2421 150.904 84.8188 148.802 85.6657C147.565 86.1184 146.263 86.3675 144.946 86.4033C143.505 86.4694 142.033 86.3756 140.678 85.881C138.861 85.2201 137.351 83.8685 136.219 82.2931C135.087 80.7177 134.308 78.9184 133.631 77.1042C133.274 76.1598 132.934 75.1536 133.102 74.1559C134.195 73.9065 135.393 73.5398 135.958 72.5655C136.44 71.7298 136.306 70.7279 136.028 69.7728C135.949 69.5021 135.858 69.2335 135.767 68.9755C135.554 68.3573 134.822 67.1826 135.332 66.6539C135.656 66.3192 137.017 66.1487 137.487 65.9313C138.933 65.2619 140.266 64.294 141.855 63.9764C143.228 63.7014 144.647 63.9593 146.019 64.245C146.201 64.2715 146.375 64.3346 146.533 64.4304C146.712 64.582 146.844 64.7817 146.915 65.006C147.305 65.9611 147.535 67.0164 147.849 68.0119C148.176 69.0544 148.596 70.0329 149.384 70.7726C149.998 71.3504 150.779 71.7128 151.544 72.0645L153.425 72.9301C153.76 73.0559 154.063 73.253 154.315 73.5078C154.561 73.8473 154.708 74.2489 154.74 74.6675C155.077 76.9108 154.704 79.2037 153.674 81.2229Z" fill="#FBBEBE"/>
<path opacity="0.1" d="M147.841 68.0119C146.343 69.5759 144.371 70.5972 142.234 70.9159C140.096 71.2345 137.914 70.8325 136.028 69.7728C135.949 69.5021 135.858 69.2335 135.767 68.9755C135.554 68.3573 134.822 67.1826 135.332 66.654C135.656 66.3193 137.017 66.1487 137.487 65.9313C138.933 65.2619 140.266 64.294 141.855 63.9764C143.228 63.7014 144.647 63.9593 146.019 64.245C146.201 64.2715 146.375 64.3346 146.533 64.4304C146.712 64.582 146.844 64.7817 146.915 65.006C147.297 65.9611 147.526 67.0164 147.841 68.0119Z" fill="black"/>
<path d="M140.797 70.5978C146.192 70.5978 150.565 66.2074 150.565 60.7914C150.565 55.3755 146.192 50.985 140.797 50.985C135.403 50.985 131.029 55.3755 131.029 60.7914C131.029 66.2074 135.403 70.5978 140.797 70.5978Z" fill="#FBBEBE"/>
<path d="M170.557 92.6176L169.754 87.7357C169.349 85.2862 168.93 82.7898 167.796 80.5834C167.051 79.138 165.868 77.7608 164.274 77.4751C163.96 77.447 163.651 77.3753 163.356 77.262C162.889 77.036 162.634 76.5286 162.276 76.1534C161.35 75.1898 159.842 75.1749 158.602 74.6846C157.506 74.2582 156.61 73.4375 155.612 72.8107C154.614 72.1839 153.372 71.7448 152.268 72.1456C152.089 74.0536 151.901 76.0042 151.094 77.7416C150.568 78.8727 149.798 79.8717 148.839 80.6654C147.88 81.4591 146.756 82.0276 145.55 82.3292C144.344 82.6308 143.086 82.658 141.868 82.4086C140.65 82.1593 139.503 81.6399 138.51 80.8882C136.618 79.4578 135.406 77.2513 134.841 74.9425C134.703 74.3797 134.546 73.7338 134.03 73.4758C133.471 73.1944 132.8 73.5355 132.331 73.9491C131.471 74.7144 130.787 75.8102 129.67 76.0681C129.267 76.1619 128.821 76.1428 128.486 76.3879C128.263 76.5945 128.076 76.8374 127.934 77.1063C127.689 77.4531 127.363 77.7332 126.983 77.9216C126.604 78.1099 126.184 78.2004 125.761 78.1851C125.373 78.1659 124.912 78.0763 124.646 78.3599C124.449 78.573 124.434 78.9056 124.222 79.1039C123.935 79.3831 123.47 79.2467 123.071 79.2318C122.315 79.1998 121.612 79.6859 121.179 80.2977C120.746 80.9095 120.542 81.6663 120.33 82.3997C122.65 87.5886 124.774 92.7838 127.095 97.9727C127.204 98.1683 127.261 98.3883 127.263 98.6123C127.216 98.8447 127.117 99.0635 126.974 99.2518C125.836 101.087 125.872 103.396 125.997 105.554C126.122 107.711 126.275 109.99 125.315 111.923C125.054 112.454 124.714 112.94 124.466 113.471C123.884 114.674 123.674 118.519 124.014 119.811H172.003C171.088 117.285 171.436 112.216 171.627 109.534C171.761 107.658 171.415 105.784 171.266 103.908C170.954 100.077 171.187 96.4421 170.557 92.6176Z" fill="#F86D70"/>
<path d="M173.014 118.319C173.721 118.048 174.5 118.146 175.258 118.249C177.698 118.583 180.174 118.927 182.435 119.905C183.497 120.361 184.508 120.971 185.225 121.868C185.862 122.676 186.234 123.666 186.586 124.64L187.402 126.876C187.712 127.729 188.026 128.599 188.113 129.505C188.368 132.189 186.54 134.719 184.24 136.113C181.94 137.508 179.233 138.004 176.596 138.524C173.959 139.045 171.311 139.62 168.684 140.23C167.459 140.549 166.216 140.795 164.962 140.965C162.15 141.285 159.211 140.814 156.54 141.748C155.478 142.121 154.436 142.675 153.334 142.933C152.603 143.094 151.863 143.214 151.119 143.291L146.063 143.871C145.035 144.009 144 144.089 142.963 144.11C140.755 144.11 138.582 143.585 136.438 143.061C136.21 143.021 135.993 142.933 135.801 142.803C135.461 142.534 135.387 142.059 135.338 141.628C135.121 139.723 134.932 137.815 134.769 135.904C134.718 135.284 134.68 134.613 135.017 134.09C135.442 133.451 136.27 133.25 137.026 133.127C140.231 132.6 143.479 132.374 146.726 132.451C147.959 131.212 149.994 131.206 151.61 130.532C152.204 130.258 152.779 129.944 153.332 129.592C156.221 127.9 159.45 126.875 162.783 126.593C163.436 126.573 164.085 126.48 164.717 126.315C165.968 125.925 167.108 124.864 168.393 125.124C168.552 124.682 168.663 124.092 169.03 123.789C169.213 123.634 169.438 123.529 169.606 123.363C169.96 123.003 169.992 122.436 169.939 121.932C169.886 121.429 169.767 120.913 169.896 120.423C169.95 120.237 170.03 120.06 170.132 119.897C170.771 118.775 171.733 118.212 173.014 118.319Z" fill="#464353"/>
<path opacity="0.05" d="M173.014 118.319C173.721 118.048 174.5 118.146 175.258 118.249C177.698 118.583 180.174 118.927 182.435 119.905C183.497 120.361 184.508 120.971 185.225 121.868C185.862 122.676 186.234 123.666 186.586 124.64L187.402 126.876C187.712 127.729 188.026 128.599 188.113 129.505C188.368 132.189 186.54 134.719 184.24 136.113C181.94 137.508 179.233 138.004 176.596 138.524C173.959 139.045 171.311 139.62 168.684 140.23C167.459 140.549 166.216 140.795 164.962 140.965C162.15 141.285 159.211 140.814 156.54 141.748C155.478 142.121 154.436 142.675 153.334 142.933C152.603 143.094 151.863 143.214 151.119 143.291L146.063 143.871C145.035 144.009 144 144.089 142.963 144.11C140.755 144.11 138.582 143.585 136.438 143.061C136.21 143.021 135.993 142.933 135.801 142.803C135.461 142.534 135.387 142.059 135.338 141.628C135.121 139.723 134.932 137.815 134.769 135.904C134.718 135.284 134.68 134.613 135.017 134.09C135.442 133.451 136.27 133.25 137.026 133.127C140.231 132.6 143.479 132.374 146.726 132.451C147.959 131.212 149.994 131.206 151.61 130.532C152.204 130.258 152.779 129.944 153.332 129.592C156.221 127.9 159.45 126.875 162.783 126.593C163.436 126.573 164.085 126.48 164.717 126.315C165.968 125.925 167.108 124.864 168.393 125.124C168.552 124.682 168.663 124.092 169.03 123.789C169.213 123.634 169.438 123.529 169.606 123.363C169.96 123.003 169.992 122.436 169.939 121.932C169.886 121.429 169.767 120.913 169.896 120.423C169.95 120.237 170.03 120.06 170.132 119.897C170.771 118.775 171.733 118.212 173.014 118.319Z" fill="black"/>
<path d="M131.274 142.986C129.959 144.515 128.802 145.061 126.744 145.012C125.479 144.982 124.215 144.916 122.952 144.813C122.089 144.72 121.221 144.679 120.353 144.692C117.733 144.794 115.204 145.999 112.59 145.788C112.203 145.757 111.821 145.686 111.449 145.575C110.86 145.41 110.327 145.084 109.91 144.634C109.409 144.065 109.169 143.31 109.031 142.564C108.332 138.74 110.248 134.574 113.601 132.628C114.038 132.344 114.535 132.167 115.053 132.11C115.561 132.108 116.062 132.218 116.522 132.434L116.554 132.447C117.916 133.009 119.154 133.838 120.194 134.885C120.352 135.067 120.54 135.219 120.75 135.335C120.96 135.415 121.182 135.457 121.406 135.459L124.196 135.636C124.669 135.65 125.139 135.715 125.598 135.83C126.104 136.007 126.596 136.221 127.071 136.469C128.573 137.143 130.237 137.322 131.86 137.582C132.016 137.591 132.165 137.651 132.284 137.753C132.349 137.834 132.394 137.929 132.416 138.03C132.643 138.887 132.657 139.787 132.458 140.651C132.259 141.514 131.852 142.316 131.274 142.986Z" fill="#3F3D56"/>
<path opacity="0.1" d="M116.546 132.447C115.463 133.484 114.524 134.663 113.753 135.951C112.517 138.077 111.74 140.441 111.473 142.888C111.372 143.781 111.364 144.682 111.449 145.577C110.86 145.411 110.327 145.085 109.91 144.634C109.409 144.065 109.169 143.31 109.031 142.564C108.332 138.74 110.248 134.574 113.6 132.628C114.038 132.344 114.535 132.167 115.053 132.11C115.561 132.108 116.062 132.218 116.522 132.434L116.546 132.447Z" fill="black"/>
<path d="M170.584 137.749C172.145 137.706 173.897 137.627 175.044 138.682C176.137 139.68 176.282 141.326 176.354 142.807L176.437 144.528C176.462 145.052 176.483 145.594 176.273 146.08C175.899 146.932 174.874 147.344 173.937 147.295C173.001 147.246 172.141 146.834 171.285 146.463C168.962 145.459 166.543 144.694 164.066 144.18C164.146 142.991 164.281 141.807 164.469 140.629C164.599 139.812 164.62 138.446 165.163 137.768C165.739 137.051 166.488 137.439 167.27 137.572C168.366 137.74 169.476 137.799 170.584 137.749Z" fill="#FBBEBE"/>
<path d="M129.344 120.464C129.344 120.677 129.01 120.464 128.98 120.236C128.747 118.511 127.384 117.089 125.795 116.398C124.207 115.707 122.398 115.671 120.678 115.835C118.077 116.083 115.168 117.083 114.206 119.523C113.981 120.095 113.879 120.713 113.603 121.261C113.297 121.862 112.798 122.342 112.467 122.926C111.895 123.936 111.872 125.175 112.078 126.318C112.632 129.366 114.709 131.973 117.225 133.779C119.741 135.585 122.682 136.663 125.615 137.636C133.369 140.203 141.324 142.111 149.397 143.338C150.705 143.536 152.026 143.72 153.279 144.142C154.4 144.519 155.449 145.084 156.544 145.528C159.093 146.555 161.834 146.922 164.55 147.282C165.013 147.342 165.543 147.384 165.885 147.069C166.327 146.657 166.181 145.941 166.055 145.351C165.594 143.107 165.979 140.772 167.136 138.797C167.59 138.03 168.181 137.243 168.096 136.354C167.994 135.318 166.966 134.585 165.943 134.419C164.919 134.252 163.879 134.497 162.851 134.632C162.496 134.679 162.11 134.709 161.789 134.527C161.637 134.424 161.498 134.301 161.377 134.161C160.669 133.475 159.763 133.032 158.789 132.895C157.815 132.759 156.822 132.935 155.954 133.4C155.574 133.613 154.999 133.137 154.604 132.958L150.142 130.927C145.012 128.597 139.857 126.256 134.429 124.781C133.996 124.695 133.585 124.523 133.219 124.275C132.949 124.062 132.756 123.772 132.507 123.536C131.966 123.022 131.212 122.817 130.562 122.453C129.913 122.088 129.191 121.195 129.344 120.464Z" fill="#464353"/>
<path d="M198.182 148.325C197.469 149.653 196.084 150.48 194.598 150.821C194.225 150.905 193.846 150.96 193.464 150.983C191.585 151.1 189.729 150.578 187.918 150.062L185.459 149.363C185.036 149.229 184.603 149.132 184.164 149.073C183.566 149.033 182.965 149.053 182.371 149.135C179.465 149.406 176.536 149.274 173.665 148.742C173.425 148.716 173.195 148.634 172.992 148.502C172.815 148.327 172.658 148.133 172.523 147.924C171.854 147.116 171.134 146.645 171.926 145.579C172.383 144.961 173.23 144.651 173.585 143.942C173.939 143.232 173.712 142.223 173.502 141.49C173.215 140.477 172.272 140.04 171.935 139.111C171.682 138.409 172.107 137.595 172.746 137.213C173.385 136.832 174.175 136.802 174.912 136.9C175.649 136.998 176.371 137.207 177.112 137.265C179.29 137.439 181.518 136.312 183.609 136.947C184.07 137.088 184.505 137.312 184.973 137.435C185.883 137.64 186.835 137.557 187.697 137.199C188.003 137.083 188.302 136.945 188.599 136.808C189.173 136.509 189.783 136.287 190.415 136.15C192.456 135.798 194.348 137.216 195.887 138.599C196.415 139.039 196.883 139.548 197.278 140.113C197.703 140.778 197.928 141.552 198.127 142.315C198.69 144.291 199.155 146.513 198.182 148.325Z" fill="#3F3D56"/>
<path opacity="0.1" d="M198.182 148.325C197.469 149.653 196.084 150.48 194.598 150.821C195.176 149.693 195.437 148.428 195.352 147.163C195.224 145.135 194.337 143.225 193.205 141.541C192.509 140.504 191.717 139.536 190.84 138.648C190.164 137.966 189.334 137.424 188.608 136.8C189.181 136.5 189.792 136.279 190.423 136.141C192.464 135.789 194.356 137.207 195.895 138.591C196.424 139.031 196.892 139.54 197.286 140.104C197.711 140.769 197.936 141.543 198.136 142.306C198.69 144.291 199.155 146.512 198.182 148.325Z" fill="black"/>
<path d="M134.049 44.8751C133.335 45.3932 132.847 46.1372 132.35 46.8513C131.435 48.1709 130.399 49.4884 128.936 50.2239C128.382 50.5032 127.749 50.7142 127.381 51.2003C127.163 51.529 127.022 51.9028 126.967 52.2939C126.687 53.6692 126.541 55.0686 126.53 56.4723C126.53 57.1715 126.56 57.8921 126.868 58.5274C127.158 59.1243 127.683 59.6295 127.791 60.2798C127.874 60.7871 127.687 61.2924 127.621 61.8019C127.556 62.3114 127.67 62.9147 128.14 63.1577C128.392 63.2532 128.656 63.3156 128.925 63.3432C130.337 63.6587 130.811 65.3215 131.025 66.6966C131.505 66.6689 131.722 66.1167 131.822 65.6669L133.293 59.0987C133.452 58.3867 133.718 57.5617 134.425 57.3122C134.898 57.1481 135.416 57.3016 135.911 57.3442C137.854 57.5041 139.498 55.9969 141.398 55.5812C142.007 55.4587 142.628 55.4178 143.248 55.4597C144.747 55.5343 146.49 56.1525 146.809 57.5574C146.862 57.7855 146.893 58.0584 147.106 58.1714C147.318 58.2844 147.531 58.1884 147.764 58.1714C148.715 58.0754 149.276 59.1499 149.55 60.0282L150.548 63.226C150.697 63.7099 150.947 64.2791 151.469 64.3409C151.951 64.4006 152.361 63.9423 152.433 63.4882C152.506 63.0341 152.349 62.563 152.244 62.1067C151.775 60.0069 152.493 57.858 152.93 55.7539C153.368 53.6498 153.446 51.2323 151.979 49.6121C151.446 49.0258 150.745 48.5888 150.248 47.9705C149.786 47.3907 149.524 46.6787 149.044 46.1095C147.717 44.5383 144.314 43.3253 142.226 43.1249C139.85 42.8627 135.977 43.4702 134.049 44.8751Z" fill="#3F3D56"/>
<g opacity="0.1">
<path opacity="0.1" d="M151.478 62.8465C150.956 62.7825 150.705 62.2069 150.556 61.7315C150.224 60.6642 149.891 59.5983 149.558 58.5338C149.284 57.6533 148.724 56.5789 147.773 56.677C147.56 56.7004 147.31 56.7878 147.114 56.677C146.919 56.5661 146.87 56.2911 146.817 56.063C146.498 54.656 144.755 54.0399 143.256 53.9653C142.637 53.9244 142.015 53.9653 141.407 54.0868C139.495 54.5132 137.863 56.0054 135.92 55.8498C135.419 55.8093 134.9 55.6558 134.433 55.82C133.718 56.0673 133.461 56.8859 133.301 57.6064L131.83 64.1725C131.73 64.6244 131.514 65.1766 131.034 65.2022C130.821 63.8293 130.346 62.1664 128.934 61.8509C128.665 61.8212 128.401 61.7589 128.148 61.6654C127.963 61.5641 127.819 61.4024 127.738 61.2071C127.7 61.4054 127.655 61.6036 127.63 61.8019C127.566 62.3093 127.679 62.9147 128.148 63.1577C128.401 63.2532 128.665 63.3156 128.934 63.3432C130.346 63.6587 130.819 65.3215 131.034 66.6966C131.514 66.6689 131.73 66.1167 131.83 65.6669L133.301 59.0987C133.461 58.3867 133.726 57.5617 134.433 57.3122C134.907 57.1481 135.425 57.3016 135.92 57.3442C137.863 57.5041 139.506 55.9969 141.407 55.5812C142.012 55.4594 142.631 55.4186 143.248 55.4597C144.747 55.5343 146.49 56.1525 146.809 57.5574C146.862 57.7855 146.893 58.0584 147.106 58.1714C147.318 58.2844 147.53 58.1884 147.764 58.1714C148.715 58.0754 149.276 59.1499 149.55 60.0282C149.881 61.0955 150.214 62.1615 150.548 63.2259C150.696 63.7099 150.947 64.2791 151.469 64.3409C151.951 64.4006 152.361 63.9422 152.433 63.4882C152.466 63.1061 152.423 62.7213 152.306 62.3562C152.231 62.51 152.112 62.6383 151.965 62.7254C151.818 62.8125 151.648 62.8546 151.478 62.8465Z" fill="black"/>
<path opacity="0.1" d="M127.793 58.7875C127.685 58.1373 127.156 57.632 126.87 57.0351C126.685 56.6325 126.579 56.1985 126.555 55.756C126.555 55.9948 126.534 56.2335 126.532 56.4744C126.532 57.1737 126.562 57.8942 126.87 58.5295C127.105 59.0134 127.494 59.4398 127.689 59.9323C127.792 59.5601 127.828 59.1722 127.793 58.7875Z" fill="black"/>
<path opacity="0.1" d="M152.939 54.2509C152.552 56.1099 151.949 58.003 152.136 59.8662C152.257 58.4912 152.656 57.1076 152.939 55.7432C153.174 54.7078 153.257 53.6434 153.185 52.5838C153.139 53.1443 153.057 53.7011 152.939 54.2509Z" fill="black"/>
</g>
<path d="M128.63 102.04C128.373 106.274 125.279 109.772 124.101 113.844C123.808 114.863 123.631 115.921 123.211 116.891C122.362 118.841 120.614 120.257 118.752 121.255C118.072 121.649 117.329 121.92 116.556 122.056C115.707 122.156 114.847 121.993 114.091 121.59C113.336 121.186 112.721 120.562 112.329 119.798C111.842 118.807 111.774 117.667 111.479 116.601C111.15 115.371 110.534 114.237 110.133 113.028C109.394 110.804 109.409 108.37 109.921 106.084C110.405 104.097 111.173 102.19 112.199 100.422C112.348 100.16 112.498 99.8999 112.653 99.642C113.091 98.8963 113.583 98.1837 114.125 97.5101C115.399 95.9688 117.036 94.7835 118.656 93.6153C118.78 93.5129 118.925 93.4401 119.081 93.4021H119.106C119.289 93.3956 119.47 93.4383 119.631 93.5257C121.878 94.501 124.034 95.6738 126.075 97.0305C126.806 97.5187 127.959 98.0644 128.341 98.8958C128.723 99.7273 128.685 101.136 128.63 102.04Z" fill="#FBBEBE"/>
<path d="M120.2 82.5574C119.993 82.7748 119.833 83.0324 119.729 83.3142C118.012 87.1979 116.998 91.3573 116.735 95.5979C116.739 95.8046 116.692 96.0092 116.597 96.1926C116.503 96.3147 116.398 96.4281 116.284 96.5316C116.181 96.6546 116.104 96.7976 116.058 96.9518C116.012 97.1059 115.998 97.2679 116.016 97.4278C116.035 97.5876 116.086 97.7419 116.167 97.8811C116.247 98.0203 116.355 98.1415 116.484 98.2371C116.834 97.5741 117.673 97.3588 118.419 97.3012C121.988 97.0177 125.475 98.6848 129.055 98.559C128.802 97.6828 128.439 96.8407 128.233 95.9539C127.322 92.0164 129.594 87.7293 128.201 83.9367C127.923 83.1778 127.458 82.4317 126.725 82.0991C126.422 81.9761 126.105 81.8916 125.78 81.8475C124.876 81.6834 123.075 80.982 122.2 81.2634C121.878 81.3679 121.75 81.6727 121.483 81.8561C121.086 82.1183 120.546 82.2099 120.2 82.5574Z" fill="#F86D70"/>
<path opacity="0.1" d="M121.663 117.807C121.117 118.737 120.342 119.51 119.412 120.052C118.482 120.594 117.429 120.886 116.355 120.901C115.773 120.916 115.194 120.809 114.656 120.587C113.299 119.986 112.532 118.498 112.248 117.036C111.963 115.573 112.053 114.064 111.851 112.586C111.689 111.41 111.345 110.267 111.167 109.092C110.73 106.187 111.592 103.317 112.205 100.424C112.354 100.162 112.505 99.9021 112.66 99.6441C113.098 98.8984 113.59 98.1859 114.131 97.5123C115.405 95.971 117.043 94.7856 118.663 93.6174H116.964C117.005 93.5872 117.053 93.5684 117.104 93.5628C117.155 93.5572 117.206 93.5651 117.252 93.5856C117.299 93.6061 117.34 93.6385 117.37 93.6796C117.4 93.7208 117.419 93.7691 117.425 93.8199C117.593 95.3122 119.688 96.8045 120.145 98.2541C120.427 99.1452 120.767 100.019 120.994 100.927C121.173 101.701 121.309 102.484 121.402 103.272C121.703 105.48 122.004 107.683 122.302 109.881C122.678 112.565 123.001 115.467 121.663 117.807Z" fill="black"/>
<path d="M118.852 89.8163L120.901 83.3633C121.207 82.3976 121.517 81.4169 121.553 80.4022C121.589 79.3874 121.323 78.3236 120.616 77.5988C120.043 77.0125 119.249 76.7098 118.569 76.2515C116.871 75.1024 116.021 73.09 115.136 71.2374C114.25 69.3848 113.085 67.447 111.152 66.7605C110.706 66.6028 110.091 66.59 109.891 67.0185C109.822 67.1966 109.811 67.3921 109.859 67.577C110.046 68.5619 110.749 69.3486 111.36 70.1352C112.386 71.4676 113.244 73.0985 112.997 74.7656C112.704 76.7397 110.938 78.2703 110.725 80.2551C110.632 81.1291 110.855 82.0053 110.853 82.8857C110.853 83.4315 110.764 83.9879 110.885 84.5209C111.01 84.9329 111.16 85.3373 111.333 85.7317C111.522 86.3691 111.62 87.0301 111.626 87.6952L112.074 96.0861C112.316 100.625 109.863 105.04 110.539 109.517C110.717 110.691 111.061 111.834 111.222 113.011C111.435 114.488 111.335 115.995 111.619 117.46C111.904 118.924 112.681 120.41 114.027 121.011C114.566 121.233 115.144 121.34 115.726 121.325C116.801 121.31 117.854 121.018 118.784 120.476C119.713 119.934 120.489 119.161 121.035 118.232C122.372 115.887 122.05 112.989 121.684 110.316L120.784 103.707C120.692 102.919 120.555 102.136 120.376 101.362C120.151 100.454 119.812 99.5802 119.527 98.689C118.616 95.7748 117.934 92.7114 118.852 89.8163Z" fill="#FBBEBE"/>
<path d="M173.398 90.3173H129.43C128.496 90.3173 127.738 91.078 127.738 92.0164V118.89C127.738 119.829 128.496 120.589 129.43 120.589H173.398C174.333 120.589 175.09 119.829 175.09 118.89V92.0164C175.09 91.078 174.333 90.3173 173.398 90.3173Z" fill="#3F3D56"/>
<path opacity="0.2" d="M173.398 90.3173H129.43C128.496 90.3173 127.738 91.078 127.738 92.0164V118.89C127.738 119.829 128.496 120.589 129.43 120.589H173.398C174.333 120.589 175.09 119.829 175.09 118.89V92.0164C175.09 91.078 174.333 90.3173 173.398 90.3173Z" fill="black"/>
<path d="M151.308 106.732C152.012 106.732 152.582 106.16 152.582 105.453C152.582 104.747 152.012 104.174 151.308 104.174C150.604 104.174 150.034 104.747 150.034 105.453C150.034 106.16 150.604 106.732 151.308 106.732Z" fill="white"/>
<path d="M95.4347 130.255H98.0061C99.4141 130.255 100.764 130.817 101.76 131.816C102.755 132.816 103.315 134.171 103.315 135.585V143.496H90.1262V135.585C90.1262 134.171 90.6855 132.816 91.681 131.816C92.6765 130.817 94.0268 130.255 95.4347 130.255Z" fill="#3F3D56"/>
<path opacity="0.1" d="M95.4347 130.255H98.0061C99.4141 130.255 100.764 130.817 101.76 131.816C102.755 132.816 103.315 134.171 103.315 135.585V143.496H90.1262V135.585C90.1262 134.171 90.6855 132.816 91.681 131.816C92.6765 130.817 94.0268 130.255 95.4347 130.255Z" fill="black"/>
<path d="M96.1949 133.169C96.7777 133.169 97.2502 132.695 97.2502 132.11C97.2502 131.525 96.7777 131.05 96.1949 131.05C95.612 131.05 95.1395 131.525 95.1395 132.11C95.1395 132.695 95.612 133.169 96.1949 133.169Z" fill="#3F3D56"/>
<path d="M96.1949 131.845C96.7777 131.845 97.2502 131.371 97.2502 130.786C97.2502 130.201 96.7777 129.726 96.1949 129.726C95.612 129.726 95.1395 130.201 95.1395 130.786C95.1395 131.371 95.612 131.845 96.1949 131.845Z" fill="#3F3D56"/>
<path d="M96.1949 130.522C96.7777 130.522 97.2502 130.047 97.2502 129.462C97.2502 128.877 96.7777 128.403 96.1949 128.403C95.612 128.403 95.1395 128.877 95.1395 129.462C95.1395 130.047 95.612 130.522 96.1949 130.522Z" fill="#3F3D56"/>
<path d="M96.1949 129.198C96.7777 129.198 97.2502 128.723 97.2502 128.138C97.2502 127.553 96.7777 127.079 96.1949 127.079C95.612 127.079 95.1395 127.553 95.1395 128.138C95.1395 128.723 95.612 129.198 96.1949 129.198Z" fill="#3F3D56"/>
<path d="M96.1949 127.874C96.7777 127.874 97.2502 127.399 97.2502 126.814C97.2502 126.229 96.7777 125.755 96.1949 125.755C95.612 125.755 95.1395 126.229 95.1395 126.814C95.1395 127.399 95.612 127.874 96.1949 127.874Z" fill="#3F3D56"/>
<path d="M96.1949 126.55C96.7777 126.55 97.2502 126.076 97.2502 125.49C97.2502 124.905 96.7777 124.431 96.1949 124.431C95.612 124.431 95.1395 124.905 95.1395 125.49C95.1395 126.076 95.612 126.55 96.1949 126.55Z" fill="#3F3D56"/>
<path d="M96.1949 125.226C96.7777 125.226 97.2502 124.752 97.2502 124.167C97.2502 123.581 96.7777 123.107 96.1949 123.107C95.612 123.107 95.1395 123.581 95.1395 124.167C95.1395 124.752 95.612 125.226 96.1949 125.226Z" fill="#3F3D56"/>
<path d="M97.7769 125.755C98.3597 125.755 98.8322 125.28 98.8322 124.695C98.8322 124.11 98.3597 123.636 97.7769 123.636C97.194 123.636 96.7215 124.11 96.7215 124.695C96.7215 125.28 97.194 125.755 97.7769 125.755Z" fill="#3F3D56"/>
<path d="M98.8322 125.226C99.415 125.226 99.8875 124.752 99.8875 124.167C99.8875 123.581 99.415 123.107 98.8322 123.107C98.2493 123.107 97.7768 123.581 97.7768 124.167C97.7768 124.752 98.2493 125.226 98.8322 125.226Z" fill="#3F3D56"/>
<path d="M99.8875 124.695C100.47 124.695 100.943 124.221 100.943 123.636C100.943 123.051 100.47 122.576 99.8875 122.576C99.3046 122.576 98.8321 123.051 98.8321 123.636C98.8321 124.221 99.3046 124.695 99.8875 124.695Z" fill="#3F3D56"/>
<path d="M96.1949 123.9C96.7777 123.9 97.2502 123.426 97.2502 122.841C97.2502 122.255 96.7777 121.781 96.1949 121.781C95.612 121.781 95.1395 122.255 95.1395 122.841C95.1395 123.426 95.612 123.9 96.1949 123.9Z" fill="#3F3D56"/>
<path d="M96.1949 122.576C96.7777 122.576 97.2502 122.102 97.2502 121.517C97.2502 120.932 96.7777 120.457 96.1949 120.457C95.612 120.457 95.1395 120.932 95.1395 121.517C95.1395 122.102 95.612 122.576 96.1949 122.576Z" fill="#3F3D56"/>
<path d="M96.1949 121.252C96.7777 121.252 97.2502 120.778 97.2502 120.193C97.2502 119.608 96.7777 119.133 96.1949 119.133C95.612 119.133 95.1395 119.608 95.1395 120.193C95.1395 120.778 95.612 121.252 96.1949 121.252Z" fill="#3F3D56"/>
<path d="M96.1949 119.928C96.7777 119.928 97.2502 119.454 97.2502 118.869C97.2502 118.284 96.7777 117.809 96.1949 117.809C95.612 117.809 95.1395 118.284 95.1395 118.869C95.1395 119.454 95.612 119.928 96.1949 119.928Z" fill="#3F3D56"/>
<path d="M100.567 115.452C100.306 115.49 100.043 115.518 99.7792 115.535C100.024 115.32 100.251 115.087 100.459 114.836C100.312 114.391 100.097 113.971 99.8217 113.593C99.5601 113.74 99.2709 113.832 98.9723 113.861C98.7111 113.9 98.4479 113.93 98.1845 113.947C98.5384 113.609 98.875 113.253 99.1932 112.881C98.4298 112.191 97.4537 111.786 96.4283 111.733C95.403 111.68 94.3905 111.982 93.5604 112.588C92.7302 113.195 92.1328 114.069 91.8681 115.065C91.6034 116.061 91.6874 117.118 92.1061 118.06C92.5248 119.001 93.2529 119.769 94.1683 120.236C95.0838 120.703 96.1311 120.839 97.1351 120.624C98.1391 120.408 99.0388 119.852 99.6836 119.05C100.328 118.248 100.679 117.248 100.677 116.217C100.678 115.958 100.655 115.699 100.609 115.443L100.567 115.452Z" fill="#FC5185"/>
<path d="M104.094 120.715C103.824 120.881 103.521 120.983 103.206 121.014C102.945 121.052 102.682 121.08 102.419 121.097C102.698 120.845 102.96 120.573 103.2 120.282C102.564 120.116 101.888 120.194 101.306 120.5C100.724 120.807 100.277 121.321 100.052 121.941C99.8265 122.561 99.84 123.244 100.089 123.854C100.339 124.465 100.806 124.961 101.4 125.244C101.994 125.527 102.672 125.578 103.301 125.386C103.93 125.194 104.466 124.774 104.802 124.207C105.139 123.64 105.253 122.967 105.122 122.32C104.991 121.673 104.625 121.099 104.094 120.709V120.715Z" fill="#FC5185"/>
<path d="M94.6108 125.755C95.1936 125.755 95.6661 125.28 95.6661 124.695C95.6661 124.11 95.1936 123.636 94.6108 123.636C94.0279 123.636 93.5554 124.11 93.5554 124.695C93.5554 125.28 94.0279 125.755 94.6108 125.755Z" fill="#3F3D56"/>
<path d="M93.5555 125.226C94.1383 125.226 94.6108 124.752 94.6108 124.167C94.6108 123.581 94.1383 123.107 93.5555 123.107C92.9726 123.107 92.5001 123.581 92.5001 124.167C92.5001 124.752 92.9726 125.226 93.5555 125.226Z" fill="#3F3D56"/>
<path d="M92.5002 124.695C93.083 124.695 93.5555 124.221 93.5555 123.636C93.5555 123.051 93.083 122.576 92.5002 122.576C91.9173 122.576 91.4448 123.051 91.4448 123.636C91.4448 124.221 91.9173 124.695 92.5002 124.695Z" fill="#3F3D56"/>
<path d="M88.2936 120.715C88.563 120.881 88.8666 120.983 89.1812 121.014C89.4424 121.052 89.7057 121.08 89.969 121.097C89.6886 120.845 89.4274 120.573 89.1876 120.282C89.8239 120.116 90.4991 120.194 91.0814 120.5C91.6637 120.807 92.111 121.321 92.3361 121.941C92.5611 122.561 92.5476 123.244 92.2982 123.854C92.0488 124.465 91.5814 124.961 90.9875 125.244C90.3936 125.527 89.7157 125.578 89.0866 125.386C88.4574 125.194 87.9221 124.774 87.5853 124.207C87.2485 123.64 87.1345 122.967 87.2655 122.32C87.3965 121.673 87.7631 121.099 88.2936 120.709V120.715Z" fill="#FC5185"/>
<path d="M95.4347 131.05H98.0061C99.4141 131.05 100.764 131.612 101.76 132.611C102.755 133.611 103.315 134.966 103.315 136.38V143.387C103.315 143.627 103.22 143.857 103.051 144.026C102.882 144.196 102.653 144.291 102.414 144.291H91.0265C90.7877 144.291 90.5587 144.196 90.3899 144.026C90.221 143.857 90.1262 143.627 90.1262 143.387V136.38C90.1262 134.966 90.6855 133.611 91.681 132.611C92.6765 131.612 94.0268 131.05 95.4347 131.05Z" fill="#3F3D56"/>
<g opacity="0.1">
<path opacity="0.1" d="M100.648 115.742C100.541 115.856 100.427 115.964 100.308 116.066C100.429 116.066 100.548 116.046 100.669 116.034C100.665 115.936 100.658 115.838 100.648 115.742Z" fill="black"/>
<path opacity="0.1" d="M98.7239 114.475C98.9893 114.458 99.2505 114.431 99.5138 114.392C99.75 114.362 99.9809 114.299 100.2 114.205C100.092 113.991 99.9688 113.787 99.8302 113.593C99.6981 113.673 99.5551 113.734 99.4055 113.774C99.1973 114.026 98.9694 114.26 98.7239 114.475Z" fill="black"/>
<path opacity="0.1" d="M92.2369 116.75C92.2353 115.942 92.4509 115.148 92.8609 114.452C93.2709 113.757 93.8601 113.185 94.5666 112.798C95.273 112.41 96.0705 112.221 96.875 112.25C97.6795 112.279 98.4613 112.526 99.138 112.964L99.2059 112.891C98.7643 112.497 98.2493 112.194 97.6906 112C97.1318 111.806 96.5404 111.726 95.9504 111.762C95.3605 111.799 94.7835 111.953 94.2529 112.214C93.7223 112.476 93.2485 112.84 92.8588 113.286C92.4691 113.733 92.1712 114.252 91.9823 114.814C91.7934 115.377 91.7171 115.971 91.758 116.563C91.7989 117.155 91.9561 117.733 92.2205 118.264C92.4849 118.795 92.8513 119.268 93.2986 119.656C92.6119 118.845 92.2355 117.814 92.2369 116.75Z" fill="black"/>
</g>
<g opacity="0.1">
<path opacity="0.1" d="M102.419 121.625C102.682 121.608 102.945 121.581 103.206 121.542C103.521 121.513 103.825 121.41 104.094 121.244C104.392 121.464 104.641 121.745 104.824 122.068C105.007 122.392 105.12 122.75 105.156 123.12C105.166 123.027 105.171 122.934 105.171 122.841C105.173 122.427 105.078 122.018 104.893 121.647C104.709 121.277 104.44 120.956 104.109 120.709C103.839 120.874 103.536 120.976 103.221 121.007L103.009 121.033C102.828 121.245 102.63 121.444 102.419 121.625Z" fill="black"/>
<path opacity="0.1" d="M102.525 120.722C102.613 120.723 102.701 120.729 102.788 120.741C102.926 120.594 103.062 120.436 103.2 120.282C102.81 120.178 102.401 120.165 102.004 120.244C101.608 120.324 101.235 120.494 100.915 120.741C100.595 120.988 100.336 121.306 100.157 121.67C99.9792 122.035 99.8869 122.435 99.8875 122.841C99.8875 122.93 99.8875 123.018 99.9003 123.105C99.9655 122.452 100.27 121.846 100.755 121.406C101.24 120.965 101.871 120.721 102.525 120.722Z" fill="black"/>
</g>
<g opacity="0.1">
<path opacity="0.1" d="M89.969 121.625C89.7057 121.608 89.4424 121.581 89.1813 121.542C88.8664 121.513 88.5626 121.411 88.2937 121.244C87.9955 121.464 87.7469 121.745 87.564 122.068C87.3811 122.392 87.268 122.75 87.232 123.12C87.2217 123.027 87.2167 122.934 87.2171 122.841C87.2151 122.427 87.3102 122.018 87.4946 121.647C87.679 121.277 87.9477 120.956 88.2788 120.709C88.5482 120.875 88.8518 120.977 89.1664 121.007L89.3787 121.033C89.5588 121.246 89.7562 121.445 89.969 121.625Z" fill="black"/>
<path opacity="0.1" d="M89.8629 120.722C89.7741 120.723 89.6855 120.729 89.5974 120.741C89.4615 120.594 89.3256 120.436 89.1876 120.282C89.578 120.178 89.9871 120.165 90.3833 120.244C90.7796 120.324 91.1522 120.494 91.4725 120.741C91.7928 120.988 92.052 121.306 92.2303 121.67C92.4085 122.035 92.5008 122.435 92.5001 122.841C92.5001 122.93 92.5001 123.018 92.4874 123.105C92.4221 122.452 92.1174 121.846 91.6324 121.406C91.1475 120.965 90.5168 120.721 89.8629 120.722Z" fill="black"/>
</g>
<path d="M81.5624 38.2984H33.5732V57.0586H81.5624V38.2984Z" fill="#FB7445"/>
<path d="M109.804 38.2984H36.1213C34.714 38.2984 33.5732 39.4438 33.5732 40.8566V54.5004C33.5732 55.9132 34.714 57.0586 36.1213 57.0586H109.804C111.211 57.0586 112.352 55.9132 112.352 54.5004V40.8566C112.352 39.4438 111.211 38.2984 109.804 38.2984Z" stroke="#3F3D56" stroke-width="9" stroke-miterlimit="10"/>
<path d="M76.7338 46.6744C76.5786 45.8897 76.1842 45.1729 75.6054 44.623C75.0266 44.0732 74.2918 43.7176 73.5028 43.6055C72.7138 43.4933 71.9096 43.6302 71.2015 43.997C70.4934 44.3639 69.9163 44.9427 69.5503 45.6532C68.7662 45.7363 68.0438 46.1186 67.5325 46.7211C67.0211 47.3236 66.7599 48.1003 66.8027 48.8907C66.8455 49.6811 67.1891 50.4247 67.7624 50.9681C68.3358 51.5114 69.0952 51.8128 69.8836 51.81H76.5554C77.237 51.8083 77.8901 51.535 78.3711 51.0501C78.8521 50.5652 79.1216 49.9084 79.1205 49.2241C79.1232 48.5732 78.8772 47.946 78.4332 47.4717C77.9892 46.9974 77.381 46.712 76.7338 46.6744ZM73.7843 48.1944V50.1514H72.1408V48.1944H70.3975L72.9626 45.617L75.5277 48.1944H73.7843Z" fill="white"/>
<defs>
<linearGradient id="paint0_linear" x1="153.827" y1="150.998" x2="153.827" y2="41.9225" gradientUnits="userSpaceOnUse">
<stop stop-color="#808080" stop-opacity="0.25"/>
<stop offset="0.54" stop-color="#808080" stop-opacity="0.12"/>
<stop offset="1" stop-color="#808080" stop-opacity="0.1"/>
</linearGradient>
</defs>
</svg>
